<svg xmlns="http://www.w3.org/2000/svg" viewBox="0 0 512 512"><defs><style>.cls-1{fill:#8bc248}.cls-2{fill:#010101}</style></defs><title>Asset 7</title><g id="Layer_2" data-name="Layer 2"><g id="Layer_1-2" data-name="Layer 1"><ellipse class="cls-1" cx="166.96" cy="285.42" rx="31.7" ry="60.92" transform="rotate(-63.44 166.949 285.422)"/><ellipse class="cls-1" cx="255.25" cy="56.26" rx="31.7" ry="42.84"/><ellipse class="cls-1" cx="348.8" cy="318.16" rx="60.92" ry="31.7" transform="matrix(.87 -.5 .5 .87 -112.35 217.03)"/><path class="cls-2" d="M506.74 493.19L375.51 422.5C333.65 399.95 300 385.21 266 382.76v-6.68l27.73-16a86.64 86.64 0 0 0 124.76-77.79 10 10 0 0 0-5-8.67 86.64 86.64 0 0 0-129.75 69.15L266 353V241l34.93-20.17A70.35 70.35 0 0 0 401.2 157.2a10 10 0 0 0-5-8.67 70.34 70.34 0 0 0-105.26 55L266 217.93V113.05a10.06 10.06 0 0 0-.24-2.16A65 65 0 0 0 261 1.34a10 10 0 0 0-10 0 65 65 0 0 0-4.75 109.55 10 10 0 0 0-.24 2.16v70.11l-17.79-10.27a71.43 71.43 0 0 0-106.9-56 10 10 0 0 0-5 8.67A71.47 71.47 0 0 0 187.7 197a71.76 71.76 0 0 0 30.52-6.84l27.78 16v114.46l-17.73-10.24a86.63 86.63 0 0 0-129.75-69.14 10 10 0 0 0-5 8.67 86.67 86.67 0 0 0 86.56 86.64 87 87 0 0 0 38.19-8.85l27.73 16v39c-34 2.45-67.65 17.18-109.51 39.73L5.26 493.19A10 10 0 0 0 10 512h492a10 10 0 0 0 4.74-18.8zM336.85 290.94a66.56 66.56 0 0 1 61.37-2.74A66.49 66.49 0 0 1 316.3 347l14.63-8.44a10 10 0 1 0-10-17.32l-14.62 8.44a66.86 66.86 0 0 1 30.54-38.74zm-1-125.08a50.27 50.27 0 0 1 45-2.68 50.33 50.33 0 0 1-69.85 40.3 50.55 50.55 0 0 1 24.84-37.62zm-148.16 11.19a51.46 51.46 0 0 1-51-45.47 51.44 51.44 0 0 1 71.46 41.26 51.7 51.7 0 0 1-20.46 4.21zm-7.61 139.5a66.67 66.67 0 0 1-66.3-60.72 66.59 66.59 0 0 1 91.91 41.52l-14.62-8.44a10 10 0 0 0-10 17.32l14.63 8.45a66.74 66.74 0 0 1-15.62 1.87zM256 22a45 45 0 0 1 0 71.24A45 45 0 0 1 256 22zM49.65 492L146 440.11c51-27.49 80.85-37.71 110-37.71s59 10.22 110 37.71L462.35 492z"/><path class="cls-2" d="M350.67 325.66a10 10 0 0 0 5-1.34l.34-.2a10 10 0 0 0-10-17.32l-.34.2a10 10 0 0 0 5 18.66zM166.34 274.63l-.34-.2a10 10 0 0 0-10 17.31l.34.2a10 10 0 0 0 10-17.31z"/></g></g></svg>