<svg xmlns="http://www.w3.org/2000/svg" viewBox="0 0 511.99 512"><defs><style>.cls-1{fill:#8bc248}.cls-2{fill:#010101}</style></defs><title>Asset 12</title><g id="Layer_2" data-name="Layer 2"><g id="Layer_1-2" data-name="Layer 1"><path class="cls-1" d="M14.58 304.01h126.83v194.08H14.58zM506.59 505.01l-100.66-3.34L417.26 462l32-33.99-14-19.67 37.2-23.79-29.2-26.88-7.33-41.33-172.67-3.33-4.01-297h247.34v489z"/><path class="cls-2" d="M78 452a10 10 0 1 0 7.07 2.93A10.07 10.07 0 0 0 78 452zM462.45 180a10 10 0 1 0 7.07 2.93 10.07 10.07 0 0 0-7.07-2.93z"/><path class="cls-2" d="M509.06 2.93A10 10 0 0 0 502 0H256a10 10 0 0 0-10 10v28.6L151.2 64a10 10 0 0 0-7.07 12.25l49.13 183.35-42.5 42.5A30 30 0 0 0 126 289H30a30 30 0 0 0-30 30v163a30 30 0 0 0 30 30h96a30 30 0 0 0 29.12-22.78L167 499.59A50.38 50.38 0 0 0 200.12 512H502a10 10 0 0 0 10-10V10a10 10 0 0 0-2.94-7.07zM246 226.61l-18.24-67.54A46.85 46.85 0 0 0 246 142.23zm0-167.3v37.06l-6.7 1.8a10 10 0 0 0-7.07 12.25 27 27 0 0 1-19 33 10 10 0 0 0-7.07 12.27l39 144.34H225l-10.34-40.46A10 10 0 0 0 213 256L166 80.74zM126 492H30a10 10 0 0 1-10-10V319a10 10 0 0 1 10-10h38v115.2a10 10 0 1 0 20 0V309h38a10 10 0 0 1 10 10v163a10 10 0 0 1-10 10zm74.12 0a30.39 30.39 0 0 1-20-7.48L156 463.45v-138.3l43.66-43.66 7.92 31a10 10 0 0 0 9.69 7.52h196.6a14 14 0 0 1 0 28H313.12a10 10 0 1 0 0 20h132a14 14 0 0 1 0 28h-132a10 10 0 1 0 0 20h110.65a14 14 0 1 1 0 28H313.12a10 10 0 1 0 0 20h76.53a14 14 0 0 1 0 28H200.12zM492 492h-71.37a33.88 33.88 0 0 0 0-28h3.14a34 34 0 0 0 30.39-49.22 34 34 0 0 0 18.29-53V235a10 10 0 0 0-20 0v113.8a34 34 0 0 0-7.29-.79h-.33a34 34 0 0 0-31-48h-16.04a47.86 47.86 0 1 0-37.6 0h-54.66V109.86A47.07 47.07 0 0 0 341.38 74h75.22a47.07 47.07 0 0 0 35.85 35.85V141a10 10 0 1 0 20 0v-40a10 10 0 0 0-10-10 27 27 0 0 1-26.92-27 10 10 0 0 0-10-10h-93.08a10 10 0 0 0-10 10 27 27 0 0 1-26.92 26.93 10 10 0 0 0-10 10V300H266V20h226v472zM379 283.86A27.86 27.86 0 1 1 406.85 256 27.89 27.89 0 0 1 379 283.86z"/></g></g></svg>