<svg xmlns="http://www.w3.org/2000/svg" viewBox="0 0 372 196.24"><defs><style>.cls-1{fill:#8bc248}</style></defs><title>Asset 5</title><g id="Layer_2" data-name="Layer 2"><g id="Layer_1-2" data-name="Layer 1"><path class="cls-1" d="M71.66 144.79c0 15.16-9.53 24.45-23.33 24.45S21.66 160 21.66 144.79s19.19-32.55 33-32.55 17 17.39 17 32.55zM314.94 164.29c-14.75-3.51-21.58-14.93-18.39-28.36s15.21-23.79 30-20.28 27.22 26.21 24 39.64-20.86 12.51-35.61 9z"/><path d="M366 160.24h-9.34a23.77 23.77 0 0 0 3.34-12 24 24 0 0 0-18.61-23.39 23.92 23.92 0 0 0-34.78-15.69c-.25-.32-.56-.58-.83-.88-1.76-16-14-58.82-29.73-61.49a55.06 55.06 0 0 1 16.2-38.3L283.77 0A67.32 67.32 0 0 0 270 19.8 67.43 67.43 0 0 0 256.25 0l-8.48 8.48A55.09 55.09 0 0 1 264 46.79c-17 2.89-30 47.66-30 65.45v48h-12v-48c0-17.79-13-62.56-30-65.45a55 55 0 0 1 16.2-38.3L199.76 0A67.48 67.48 0 0 0 186 19.8 67.48 67.48 0 0 0 172.24 0l-8.48 8.48A55.06 55.06 0 0 1 180 46.79c-17 2.89-30 47.66-30 65.45v48h-12v-48c0-17.79-13-62.56-30-65.45a55 55 0 0 1 16.2-38.3L115.76 0A67.48 67.48 0 0 0 102 19.8 67.48 67.48 0 0 0 88.24 0l-8.48 8.48A55.06 55.06 0 0 1 96 46.79c-15.7 2.67-28 45.5-29.72 61.49-.27.3-.58.57-.84.88a23.92 23.92 0 0 0-34.78 15.69A24 24 0 0 0 12 148.24a23.77 23.77 0 0 0 3.34 12H6a6 6 0 0 0-6 6v24a6 6 0 0 0 6 6h360a6 6 0 0 0 6-6v-24a6 6 0 0 0-6-6zm-56.77-38.12a11.84 11.84 0 0 1 8.77-3.88 12 12 0 0 1 12 12 6 6 0 0 0 6 6 12 12 0 0 1 0 24h-30v-36.36a5.94 5.94 0 0 0 3.23-1.76zM246 124.24h24v-12h-24c0-13.23 10.77-54 24-54s24 40.77 24 54v24h-24v12h24v12h-48zm-84 0h24v-12h-24c0-13.23 10.77-54 24-54s24 40.77 24 54v24h-24v12h24v12h-48zm-60-66c13.23 0 24 40.77 24 54v24h-24v12h24v12H78v-36h24v-12H78c0-13.23 10.77-54 24-54zm-78 90a12 12 0 0 1 12-12 6 6 0 0 0 6-6 12 12 0 0 1 12-12 11.84 11.84 0 0 1 8.77 3.88 6 6 0 0 0 3.23 1.76v36.36H36a12 12 0 0 1-12-12zm336 36H12v-12h348zm0 0"/></g></g></svg>