<svg xmlns="http://www.w3.org/2000/svg" viewBox="0 0 241.02 241.02"><defs><style>.cls-1{fill:none}.cls-2{fill:#8bc248}.cls-3{clip-path:url(#clip-path)}</style><clipPath id="clip-path" transform="translate(-.23)"><path class="cls-1" d="M0 0h240.83v240.83H0z"/></clipPath></defs><title>Asset 4</title><g id="Layer_2" data-name="Layer 2"><g id="Layer_1-2" data-name="Layer 1"><path class="cls-2" d="M227.55 229.33l-1.47 1.36a29.67 29.67 0 0 1-41.93-1.69l-45.29-49.07 5.32-12.47-16.87-.05c-11.11-12-4.17-20.55 7.87-31.67l3.33-2.33c12-11.11 18.07-19.71 29.19-7.67l-2.19 18.33 16.33-3.67 47.38 47a29.67 29.67 0 0 1-1.67 41.93z" transform="translate(-.23)"/><path d="M.76 22.09L16.82 50.2a4 4 0 0 0 2.51 1.9l15 3.74 51.39 51.39 5.68-5.68-52.2-52.2a4 4 0 0 0-1.86-1.06L22.93 44.7 9.26 20.75 21 9l24 13.69 3.61 14.4A4 4 0 0 0 49.6 39l52.2 52.2 5.68-5.68-51.39-51.41-3.75-15a4 4 0 0 0-1.9-2.51L22.33.56a4 4 0 0 0-4.82.65L1.45 17.27a4 4 0 0 0-.69 4.83zm0 0" transform="translate(-.23)" class="cls-3"/><path d="M167.7 79.13l-88.34 88.34-5.68-5.68L162 73.46zm0 0" transform="translate(-.23)"/><g class="cls-3"><path d="M63.9 170.6a4 4 0 0 0-3.44-1.95H36.37a4 4 0 0 0-3.44 1.95l-12 20.08a4 4 0 0 0 0 4.14l12 20.08a4 4 0 0 0 3.44 1.95h24.09a4 4 0 0 0 3.44-1.95l12-20.08a4 4 0 0 0 0-4.14zm-5.71 38.2H38.64L29 192.74l9.64-16.06h19.55l9.64 16.06zm0 0" transform="translate(-.23)"/><path d="M193 96.37a48 48 0 0 0 46.7-59.83 4 4 0 0 0-6.73-1.87l-25 25L188.11 53l-6.61-19.78 25-25a4 4 0 0 0-1.88-6.74 48 48 0 0 0-59.83 46.71 47.21 47.21 0 0 0 1 9.41l-87.97 87.93a47.35 47.35 0 0 0-9.41-1 48.18 48.18 0 1 0 48.19 48.21 47.21 47.21 0 0 0-1-9.41l21.05-21.05 9.21 9.21a4 4 0 0 0 5.68 0l2-2a4.5 4.5 0 0 1 6.38 6.36l-2 2a4 4 0 0 0 0 5.68l47.9 47.9a32.41 32.41 0 1 0 46-45.62l-.21-.21-47.9-47.9a4 4 0 0 0-5.68 0l-2 2a4.5 4.5 0 0 1-6.38-6.36l2-2a4 4 0 0 0 0-5.68l-9.21-9.21 21.12-21.05a47.2 47.2 0 0 0 9.41 1zm15.77 136.52a24.41 24.41 0 0 1-8.54-1.56L231.56 200a24.35 24.35 0 0 1-22.82 32.92zm-45.52-104.35a12.53 12.53 0 0 0 17.67 17.64l45.08 45.1c.49.49.95 1 1.39 1.53L193 227.14c-.53-.44-1-.9-1.53-1.39l-45.1-45.1A12.53 12.53 0 0 0 128.74 163l-6.42-6.42 34.51-34.46zm16.21-40.38l-91.08 91.06a4 4 0 0 0-1.06 3.78 40.42 40.42 0 1 1-29.2-29.2 4.05 4.05 0 0 0 3.82-1.06L153 61.71a4 4 0 0 0 1.06-3.81 40 40 0 0 1 41.18-49.8l-21.18 21.19a4 4 0 0 0-1 4.11l8 24.09a4 4 0 0 0 2.6 2.51l24.09 8a4 4 0 0 0 4.11-1L233 45.91c0 .77.07 1.52.07 2.28a39.95 39.95 0 0 1-49.86 38.9 4 4 0 0 0-3.81 1.06zm0 0" transform="translate(-.23)"/></g><path d="M207.85 201.94l-5.68 5.68L162 167.47l5.68-5.68zm0 0" transform="translate(-.23)"/></g></g></svg>