<svg xmlns="http://www.w3.org/2000/svg" viewBox="0 0 120.23 120.23"><defs><style>.cls-1{fill:none}.cls-2{fill-rule:evenodd}.cls-3{clip-path:url(#clip-path)}</style><clipPath id="clip-path"><path class="cls-1" d="M21.75 41.61h76.73v43.85H21.75z"/></clipPath></defs><title>Asset 14</title><g id="Layer_2" data-name="Layer 2"><g id="Layer_1-2" data-name="Layer 1"><path class="cls-2" d="M120.23 60.12a60.12 60.12 0 1 0-60.12 60.12 60.12 60.12 0 0 0 60.12-60.12zm-114.76 0a54.65 54.65 0 1 1 54.65 54.65A54.65 54.65 0 0 1 5.47 60.12zm0 0"/><path d="M97.58 80.88a5 5 0 0 0-.27-.51q-2-3.56-7.58-8.76l-.08-.09c-1.69-1.63-2.76-2.7-3.22-3.26a3.09 3.09 0 0 1-.67-3.26 31.64 31.64 0 0 1 3.58-5.19c1.09-1.4 1.95-2.53 2.58-3.37q6.88-9.13 6-11.67l-.23-.39a2.37 2.37 0 0 0-1.24-.65 6.07 6.07 0 0 0-2.54-.1l-11.43.07a1.45 1.45 0 0 0-.79 0l-.52.12-.19.1-.17.12a2 2 0 0 0-.43.42 2.71 2.71 0 0 0-.39.69 66 66 0 0 1-4.25 8.93c-1 1.64-1.88 3.06-2.7 4.27A19.46 19.46 0 0 1 70.92 61a13.66 13.66 0 0 1-1.5 1.37c-.45.34-.79.49-1 .44l-.67-.16a2.54 2.54 0 0 1-.9-1 4.43 4.43 0 0 1-.45-1.55 14.75 14.75 0 0 1-.13-1.6v-1.91-1.66c0-1 0-2.1.06-3.28s.08-2.11.09-2.8.05-1.42.05-2.18a9 9 0 0 0-.15-1.81 6.73 6.73 0 0 0-.41-1.27 2.21 2.21 0 0 0-.82-.95 4.66 4.66 0 0 0-1.32-.54 27 27 0 0 0-5.36-.51q-7.38-.07-9.49 1a5.31 5.31 0 0 0-1.51 1.19c-.47.59-.54.9-.2 1a4.84 4.84 0 0 1 3.38 1.71l.24.47a7.53 7.53 0 0 1 .55 1.83 18.76 18.76 0 0 1 .36 2.9 30.45 30.45 0 0 1 0 5c-.13 1.37-.26 2.45-.37 3.22a6.38 6.38 0 0 1-.54 1.86 7.48 7.48 0 0 1-.48.88.74.74 0 0 1-.2.2 3.07 3.07 0 0 1-1.07.2 2.5 2.5 0 0 1-1.35-.56 9.59 9.59 0 0 1-1.64-1.53 20.53 20.53 0 0 1-1.93-2.72C43.47 57 42.73 55.59 42 54l-.64-1.16q-.59-1.11-1.62-3.24t-1.87-4.1a2.6 2.6 0 0 0-1-1.27l-.2-.12a2.77 2.77 0 0 0-.63-.34 3.84 3.84 0 0 0-.92-.26l-10.87.08a2.78 2.78 0 0 0-2.26.75l-.15.24a1.24 1.24 0 0 0-.12.64 3.2 3.2 0 0 0 .28 1.07q2.39 5.59 5.18 10.8T32 65.46c1.38 2.11 2.78 4.12 4.21 6s2.37 3.08 2.83 3.62.83.93 1.09 1.19l1 .94A21.92 21.92 0 0 0 44 79.49q1.8 1.33 4 2.63a23.29 23.29 0 0 0 5.22 2.1 18.23 18.23 0 0 0 5.79.65h4.57a3.22 3.22 0 0 0 2.1-.87l.15-.21a2.35 2.35 0 0 0 .3-.72 4.08 4.08 0 0 0 .2-1.07 13.07 13.07 0 0 1 .25-3.08 8 8 0 0 1 .68-2 4.62 4.62 0 0 1 .85-1.17 2.14 2.14 0 0 1 1-.73 2.56 2.56 0 0 1 2.25.62 13.66 13.66 0 0 1 2.41 2.3c.76.92 1.66 1.94 2.72 3.08a19.71 19.71 0 0 0 2.77 2.53l.8.48a9.78 9.78 0 0 0 2.07.88 4.44 4.44 0 0 0 2.21.19l10.17-.16a4.51 4.51 0 0 0 2.34-.49 1.92 1.92 0 0 0 1-1.09 3 3 0 0 0 0-1.35 6.12 6.12 0 0 0-.29-1zm0 0" class="cls-3"/></g></g></svg>