<svg xmlns="http://www.w3.org/2000/svg" viewBox="0 0 77.7 77.7"><defs><style>.cls-1{fill-rule:evenodd}</style></defs><title>Asset 15</title><g id="Layer_2" data-name="Layer 2"><g id="Layer_1-2" data-name="Layer 1"><path class="cls-1" d="M77.7 38.85A38.85 38.85 0 1 0 38.85 77.7 38.85 38.85 0 0 0 77.7 38.85zm-74.16 0a35.31 35.31 0 1 1 35.31 35.31A35.32 35.32 0 0 1 3.53 38.85zm0 0"/><path class="cls-1" d="M40.33 61.27V38.85h7.4l1.17-7.43h-8.57v-3.73c0-1.95.63-3.79 3.41-3.79h5.57v-7.42h-7.9c-6.64 0-8.45 4.38-8.45 10.44v4.5h-4.54v7.43H33v22.42zm0 0"/></g></g></svg>