<svg xmlns="http://www.w3.org/2000/svg" viewBox="0 0 424.77 512"><defs><style>.cls-1{fill:#8bc248}.cls-2{fill:#010101}</style></defs><title>Asset 8</title><g id="Layer_2" data-name="Layer 2"><g id="Layer_1-2" data-name="Layer 1"><ellipse class="cls-1" cx="210.76" cy="466.17" rx="27.29" ry="34.53"/><ellipse class="cls-1" cx="102.61" cy="353.96" rx="27.29" ry="34.53"/><path class="cls-2" d="M233.43 96.57h-.24a10 10 0 0 0 0 20h.24a10 10 0 0 0 0-20z"/><path class="cls-2" d="M375 176.1h-23.37a69.71 69.71 0 0 0-59.36-78.88A106.57 106.57 0 0 0 80 97.08a89.54 89.54 0 0 0 9.58 178.57H375a49.77 49.77 0 0 0 0-99.54zm0 79.54H89.46a69.54 69.54 0 1 1 55.29-111.82 10 10 0 1 0 15.88-12.16A90.16 90.16 0 0 0 100 97.2a86.57 86.57 0 0 1 172-.63h-9.94a10 10 0 0 0 0 20h20.52a49.69 49.69 0 0 1 46.83 66.21 10 10 0 0 0 9.43 13.33H375a29.77 29.77 0 0 1 0 59.54z"/><path class="cls-2" d="M176 162.76a10 10 0 0 0-19.33 5.13l.05.19A10 10 0 0 0 176 163zM102.61 305.13a10 10 0 0 0-7.07 2.93C88.15 315.45 64 341.35 64 364.21a38.17 38.17 0 0 0 38.58 38.58 38.63 38.63 0 0 0 38.58-38.58c0-22.24-22-46.68-31.51-56.16a10 10 0 0 0-7.04-2.92zm0 77.67A18.38 18.38 0 0 1 84 364.21c0-9.1 8.72-22.91 18.59-34.39 10 11.62 18.57 25.2 18.57 34.39a18.6 18.6 0 0 1-18.55 18.58zM318.91 305.13a10 10 0 0 0-7.07 2.93c-7.39 7.39-31.51 33.29-31.51 56.16a38.17 38.17 0 0 0 38.58 38.58 38.63 38.63 0 0 0 38.58-38.58c0-22.24-22-46.68-31.51-56.16a10 10 0 0 0-7.07-2.93zm0 77.67a18.38 18.38 0 0 1-18.58-18.58c0-9.1 8.72-22.91 18.59-34.39 10 11.62 18.57 25.2 18.57 34.39a18.6 18.6 0 0 1-18.58 18.57zM210.76 414.33a10 10 0 0 0-7.07 2.93c-7.39 7.39-31.51 33.29-31.51 56.15A38.27 38.27 0 0 0 210.76 512a38.62 38.62 0 0 0 38.58-38.58c0-22.24-22-46.68-31.51-56.15a10 10 0 0 0-7.07-2.94zm0 77.66a18.28 18.28 0 0 1-18.58-18.58c0-9.1 8.72-22.91 18.59-34.39 10 11.62 18.57 25.2 18.57 34.39A18.6 18.6 0 0 1 210.76 492z"/></g></g></svg>