<svg xmlns="http://www.w3.org/2000/svg" viewBox="0 0 512 290"><defs><style>.cls-1{fill:#8bc248}.cls-2{fill:#010101}</style></defs><title>Asset 6</title><g id="Layer_2" data-name="Layer 2"><g id="Layer_1-2" data-name="Layer 1"><path class="cls-1" d="M238.89 42.52h77.82v56h-77.82z"/><circle class="cls-1" cx="403.53" cy="229.64" r="49.64"/><circle class="cls-1" cx="125.53" cy="229.64" r="49.64"/><path class="cls-2" d="M502 190h-5v-66.25c0-17.73-13.4-32.3-29.88-32.5l-98.49-1.17-27.44-64C338.43 19.62 330 0 304.18 0h-99.64a10 10 0 0 0-10 10v80H25a10 10 0 0 0-10 10v90h-5a10 10 0 0 0-10 10v15a25 25 0 0 0 25 25h35.85a60 60 0 0 0 118.3 0h163.7a60 60 0 0 0 118.3 0H487a25 25 0 0 0 25-25v-15a10 10 0 0 0-10-10zM322.81 33.94l30 70a10 10 0 0 0 9.07 6.06l105 1.25c5.58.07 10.12 5.68 10.12 12.5V150h-6.61a10 10 0 0 0 0 20H477v20h-30.33A59.86 59.86 0 0 0 402 170h-66.55a10 10 0 0 0 0 20h21.88a59.82 59.82 0 0 0-14.48 30H214.54V20h89.65c9.21 0 14.26 3.78 18.62 13.94zM35 175.26h6.61a10 10 0 0 0 0-20H35v-10.75h32.55a10 10 0 0 0 0-20H35V110h159.54v110h-15.39a60 60 0 0 0-103.82-30H35zM20 215v-5h43.44a59.4 59.4 0 0 0-2.59 10H25a5.07 5.07 0 0 1-5-5zm100 55a40 40 0 0 1-40-40 40 40 0 0 1 80 0 40 40 0 0 1-40 40zm282 0a40 40 0 0 1-40-40 40 40 0 0 1 80 0 40 40 0 0 1-40 40zm90-55a5.07 5.07 0 0 1-5 5h-25.85a59.4 59.4 0 0 0-2.59-10H492v5z"/><path class="cls-2" d="M402 200a30 30 0 1 0 30 30 30 30 0 0 0-30-30zm0 40a10 10 0 1 1 10-10 10 10 0 0 1-10 10zM120 200a30 30 0 1 0 30 30 30 30 0 0 0-30-30zm0 40a10 10 0 1 1 10-10 10 10 0 0 1-10 10zM236.23 110h93.13a10 10 0 0 0 9.19-13.94l-24.95-58.2c-.22-.51-.63-1.45-1.11-2.4a10 10 0 0 0-8.9-5.46h-67.36a10 10 0 0 0-10 10v60a10 10 0 0 0 10 10zm10-60h50.82l17.15 40h-68zM306.72 170h-.24a10 10 0 0 0 0 20h.24a10 10 0 0 0 0-20zM96.28 144.51h.24a10 10 0 0 0 0-20h-.24a10 10 0 1 0 0 20z"/></g></g></svg>