<svg xmlns="http://www.w3.org/2000/svg" viewBox="0 0 460 512"><defs><style>.cls-1{fill:#8bc248}.cls-2{fill:#010101}</style></defs><title>Asset 13</title><g id="Layer_2" data-name="Layer 2"><g id="Layer_1-2" data-name="Layer 1"><ellipse class="cls-1" cx="217" cy="273.5" rx="30.5" ry="17.5"/><path class="cls-1" d="M303.73 507h63.54c41.82 0 75.73 16.43 75.73-25.4v-19.87c0-41.82-90.18-99.19-132-99.19L303.73 386C286 417.33 284 425 252 466l-24 15.6c0 41.83 33.91 25.4 75.73 25.4z"/><path class="cls-1" d="M154.27 507H90.73C48.91 507 15 523.43 15 481.6v-19.87c0-41.82 90.18-99.19 132-99.19l7.27 23.46C172 417.33 174 425 206 466l24 15.6c0 41.83-33.91 25.4-75.73 25.4z"/><path class="cls-2" d="M340 416a10 10 0 1 0-10-10 10 10 0 0 0 10 10z"/><path class="cls-2" d="M10 512h440a10 10 0 0 0 10-10c0-61.73-40.11-119.91-95.38-138.34l-47.53-15.84L300 313.7a109.53 109.53 0 0 0 29.64-57.94L331.8 243H350a30 30 0 0 0 30-30v-63C380 67.29 312.71 0 230 0A149.91 149.91 0 0 0 80 150v63a30 30 0 0 0 20 28.28V253a30 30 0 0 0 30 30h8.78a108.49 108.49 0 0 0 16.77 26c1.42 1.63 2.89 3.21 4.41 4.74l-17.05 34.11-47.53 15.81C40.11 382.09 0 440.27 0 502a10 10 0 0 0 10 10zm220-28.91l-13.56-21.77q-.23-.37-.49-.71a381.29 381.29 0 0 1-22.53-33.66l35.66-37.71 37.58 37.58a380.86 380.86 0 0 1-22.61 33.8c-.49.63.21-.4-14.05 22.47zm46.78-74.45l-33.95-33.95 42.74-45.19 13.6 27.21a380.91 380.91 0 0 1-22.39 51.93zm-48.1-48.1L209.16 341a100.3 100.3 0 0 0 37.19.84zm-55.94-27.66l42.2 42.2-31.72 33.54a381 381 0 0 1-22.39-51.92zM439.6 492H248l12.3-19.75a400.83 400.83 0 0 0 27.56-42.13l.15-.27a400.54 400.54 0 0 0 28.16-61.21l42.09 14c44.41 14.79 77.38 59.82 81.34 109.36zM110 223a10 10 0 0 1-10-10v-53h20.3q0 1.56.11 3.15v.11c.7 20.07 2.37 40.48 4.86 59.74H110zm209.92-73.21v.1l-12.51-1.79a160.69 160.69 0 0 1-90.34-45.17A10 10 0 0 0 210 100a90.47 90.47 0 0 0-69.56 32.91C144.63 92.19 179.05 60 221.05 60H239c44.81 0 81.08 36.65 81 81.41 0 3.15 0 5.89-.08 8.38zM360 213a10 10 0 0 1-10 10h-15.26c2.54-19.69 4.24-40.64 4.92-61.28 0-.58 0-1.15.05-1.72H360zM230 20c68.32 0 124.5 53 129.62 120H340c-.72-55.23-45.69-100-101-100h-17.9c-55.34 0-100.32 44.77-101 100h-19.72A129.92 129.92 0 0 1 230 20zM120 253v-10h8.2l2.13 12.76c.41 2.42.9 4.84 1.48 7.24H130a10 10 0 0 1-10-10zm61.72 30A30 30 0 0 0 210 303h20a30 30 0 0 0 0-60h-20a30 30 0 0 0-28.3 20h-29.16c-5-16.65-10.73-65.65-12-97.05L154 148a70.39 70.39 0 0 1 52-27.89 180.88 180.88 0 0 0 98.54 47.79l14.72 2.1c-1 20.88-3 41.84-5.88 61.12-.92 6.2-1.64 10.18-3.48 21.32-5.3 31.76-29 60.49-60.29 68.31a81.34 81.34 0 0 1-39.31 0c-19.54-4.88-37.45-18.4-49-37.78zM200 273a10 10 0 0 1 10-10h20a10 10 0 0 1 0 20h-20a10 10 0 0 1-10-10zm-98.3 109.64l42.09-14a400.87 400.87 0 0 0 28.46 61.74l.06.1a401 401 0 0 0 27.37 41.8L212 492H20.4c3.96-49.54 36.93-94.57 81.3-109.36z"/><path class="cls-2" d="M369 433a79.86 79.86 0 0 1 22.61 27.45 10 10 0 0 0 17.89-8.94 100 100 0 0 0-28.31-34.37A10 10 0 0 0 369 433z"/></g></g></svg>