<svg xmlns="http://www.w3.org/2000/svg" viewBox="0 0 512 511.85"><defs><style>.cls-1{fill:#8bc248}</style></defs><title>Asset 11</title><g id="Layer_2" data-name="Layer 2"><g id="Layer_1-2" data-name="Layer 1"><path class="cls-1" d="M243.04 348.43l-31.78-120.67 105.12 50-52.56 10.33-20.78 60.34z"/><rect class="cls-1" x="11.71" y="369.09" width="434" height="45.33" rx="21.67" ry="21.67"/><rect class="cls-1" x="349.04" y="216.93" width="152.67" height="45.33" rx="21.67" ry="21.67"/><rect class="cls-1" x="86.03" y="462.09" width="278.52" height="45.33" rx="21.67" ry="21.67"/><rect class="cls-1" x="349.04" y="6.26" width="152.67" height="45.33" rx="21.67" ry="21.67"/><path d="M486.13 0H367a25.9 25.9 0 0 0-25.87 25.87V95.3H219a7.6 7.6 0 1 0 0 15.21h122.14v128.1A25.9 25.9 0 0 0 367 264.48h69.67v99.12H15.21V140.38a29.91 29.91 0 0 1 29.88-29.88h148.6a7.6 7.6 0 1 0 0-15.21H45.09A45.14 45.14 0 0 0 0 140.38v235.28a45.54 45.54 0 0 0 45.49 45.49h94.81l-8.44 35.34H114.1a35.79 35.79 0 0 0-35.75 35.75v12a7.6 7.6 0 0 0 7.61 7.6H293a7.6 7.6 0 1 0 0-15.21H93.56v-4.4a20.57 20.57 0 0 1 20.54-20.53h223.7a20.57 20.57 0 0 1 20.55 20.54v4.4h-40a7.6 7.6 0 1 0 0 15.21h47.55a7.6 7.6 0 0 0 7.61-7.6v-12a35.79 35.79 0 0 0-35.75-35.75H320l-8.44-35.34h94.81a45.54 45.54 0 0 0 45.49-45.49V264.48h34.23A25.9 25.9 0 0 0 512 238.61V25.87A25.9 25.9 0 0 0 486.13 0zM304.4 456.49H147.5l8.44-35.34H296zm102-50.55H45.49a30.33 30.33 0 0 1-30.12-27.14h421.16a30.33 30.33 0 0 1-30.12 27.14zM367 15.21h119.13a10.67 10.67 0 0 1 10.66 10.66V38H356.36V25.87A10.67 10.67 0 0 1 367 15.21zm129.79 196.11H356.36V53.16h140.43zm-10.66 38H367a10.68 10.68 0 0 1-10.66-10.66v-12.13h140.45v12.09a10.67 10.67 0 0 1-10.66 10.66zm0 0"/><path d="M377.7 94.68h44.1a7.6 7.6 0 1 0 0-15.21h-44.1a7.6 7.6 0 0 0 0 15.21zm0 0M377.7 129.93h74.52a7.6 7.6 0 1 0 0-15.21H377.7a7.6 7.6 0 0 0 0 15.21zm0 0M377.7 165.2H475a7.6 7.6 0 1 0 0-15.2h-97.3a7.6 7.6 0 0 0 0 15.21zm0 0M48.77 161.61h44.1a7.6 7.6 0 1 0 0-15.21h-44.1a7.6 7.6 0 0 0 0 15.21zm0 0M48.77 196.87h74.51a7.6 7.6 0 1 0 0-15.21H48.77a7.6 7.6 0 0 0 0 15.21zm0 0M48.77 232.13h97.33a7.6 7.6 0 0 0 0-15.21H48.77a7.6 7.6 0 0 0 0 15.21zm0 0M199.87 229.21l38 120.14a7.59 7.59 0 0 0 7.22 5.31 7.6 7.6 0 0 0 7.23-5.26l16.9-52.1 52-11.24a7.61 7.61 0 0 0 1.57-14.34L210.3 220a7.6 7.6 0 0 0-10.42 9.21zM295.76 276l-34 7.35a7.6 7.6 0 0 0-5.63 5.09l-10.93 33.69L219.55 241zm0 0"/></g></g></svg>